<svg xmlns="http://www.w3.org/2000/svg" xmlns:xlink="http://www.w3.org/1999/xlink" width="192" zoomAndPan="magnify" viewBox="0 0 144 143.999998" height="192" preserveAspectRatio="xMidYMid meet" version="1.0"><defs><clipPath id="d31f218401"><path d="M 72 0 C 32.234375 0 0 32.234375 0 72 C 0 111.765625 32.234375 144 72 144 C 111.765625 144 144 111.765625 144 72 C 144 32.234375 111.765625 0 72 0 Z M 72 0 " clip-rule="nonzero"/></clipPath><clipPath id="ea0e6003a1"><path d="M 55 33.121094 L 89 33.121094 L 89 111 L 55 111 Z M 55 33.121094 " clip-rule="nonzero"/></clipPath></defs><g clip-path="url(#d31f218401)"><rect x="-14.4" width="172.8" fill="#000000" y="-14.4" height="172.799997" fill-opacity="1"/></g><path fill="#9442fe" d="M 44.621094 99.921875 C 42.976562 99.921875 41.882812 99.375 40.785156 98.28125 L 18.882812 76.378906 C 16.695312 74.1875 16.695312 70.902344 18.882812 68.710938 L 40.785156 46.808594 C 42.976562 44.617188 46.261719 44.617188 48.453125 46.808594 C 50.644531 49 50.644531 52.285156 48.453125 54.476562 L 30.382812 72.542969 L 48.453125 90.613281 C 50.644531 92.804688 50.644531 96.089844 48.453125 98.28125 C 47.359375 99.375 46.261719 99.921875 44.621094 99.921875 Z M 44.621094 99.921875 " fill-opacity="1" fill-rule="nonzero"/><path fill="#9442fe" d="M 99.375 99.921875 C 97.734375 99.921875 96.636719 99.375 95.542969 98.28125 C 93.351562 96.089844 93.351562 92.804688 95.542969 90.613281 L 113.613281 72.542969 L 95.542969 54.476562 C 93.351562 52.285156 93.351562 49 95.542969 46.808594 C 97.734375 44.617188 101.019531 44.617188 103.210938 46.808594 L 125.113281 68.710938 C 127.300781 70.902344 127.300781 74.1875 125.113281 76.378906 L 103.210938 98.28125 C 102.113281 99.375 101.019531 99.921875 99.375 99.921875 Z M 99.375 99.921875 " fill-opacity="1" fill-rule="nonzero"/><g clip-path="url(#ea0e6003a1)"><path fill="#9442fe" d="M 61.046875 110.875 C 60.5 110.875 59.953125 110.875 59.402344 110.328125 C 56.667969 109.230469 55.023438 106.492188 56.117188 103.207031 L 78.019531 37.5 C 79.117188 34.761719 81.855469 33.121094 85.140625 34.214844 C 87.878906 35.308594 89.519531 38.046875 88.425781 41.332031 L 66.523438 107.039062 C 65.425781 109.230469 63.238281 110.875 61.046875 110.875 Z M 61.046875 110.875 " fill-opacity="1" fill-rule="nonzero"/></g></svg>