<svg xmlns="http://www.w3.org/2000/svg" xmlns:xlink="http://www.w3.org/1999/xlink" width="50" zoomAndPan="magnify" viewBox="0 0 37.5 37.499999" height="50" preserveAspectRatio="xMidYMid meet" version="1.0"><defs><clipPath id="1dce11942e"><path d="M 3.363281 9.996094 L 33.707031 9.996094 L 33.707031 27.019531 L 3.363281 27.019531 Z M 3.363281 9.996094 " clip-rule="nonzero"/></clipPath></defs><g clip-path="url(#1dce11942e)"><path fill="#cfff00" d="M 3.378906 26.066406 L 3.378906 10.945312 C 3.378906 10.421875 3.804688 9.996094 4.332031 9.996094 L 32.707031 9.996094 C 33.6875 9.996094 34.027344 11.292969 33.175781 11.777344 L 20.207031 19.390625 C 19.355469 19.871094 19.695312 21.171875 20.675781 21.171875 L 32.738281 21.171875 C 33.261719 21.171875 33.691406 21.597656 33.691406 22.121094 L 33.691406 26.066406 C 33.691406 26.59375 33.261719 27.019531 32.738281 27.019531 L 4.332031 27.019531 C 3.804688 27.019531 3.378906 26.59375 3.378906 26.066406 Z M 13.972656 20.597656 L 19.09375 17.605469 C 19.933594 17.113281 19.582031 15.832031 18.609375 15.832031 L 13.488281 15.832031 C 12.960938 15.832031 12.535156 16.257812 12.535156 16.785156 L 12.535156 19.777344 C 12.535156 20.511719 13.335938 20.96875 13.972656 20.597656 Z M 13.972656 20.597656 " fill-opacity="1" fill-rule="nonzero"/></g></svg>