<svg xmlns="http://www.w3.org/2000/svg" xmlns:xlink="http://www.w3.org/1999/xlink" width="50" zoomAndPan="magnify" viewBox="0 0 37.5 37.499999" height="50" preserveAspectRatio="xMidYMid meet" version="1.0"><defs><clipPath id="10b31ca371"><path d="M 0 0 L 37.007812 0 L 37.007812 37.007812 L 0 37.007812 Z M 0 0 " clip-rule="nonzero"/></clipPath><clipPath id="f80a9cfca5"><path d="M 2.460938 7.671875 L 34.285156 7.671875 L 34.285156 31.355469 L 2.460938 31.355469 Z M 2.460938 7.671875 " clip-rule="nonzero"/></clipPath></defs><g clip-path="url(#10b31ca371)"><path fill="#ffffff" d="M 0 0 L 37.007812 0 L 37.007812 37.007812 L 0 37.007812 Z M 0 0 " fill-opacity="1" fill-rule="nonzero"/><path fill="#ffffff" d="M 0 0 L 37.007812 0 L 37.007812 37.007812 L 0 37.007812 Z M 0 0 " fill-opacity="1" fill-rule="nonzero"/></g><g clip-path="url(#f80a9cfca5)"><path fill="#29b2fe" d="M 21.160156 7.757812 L 23.328125 10.777344 L 34.285156 7.757812 M 9.757812 31.269531 L 15.691406 25.507812 L 12.121094 21.699219 M 20.253906 7.757812 L 17.085938 10.597656 L 22.417969 10.792969 M 7.929688 7.757812 L 9.074219 10.074219 L 15.347656 10.464844 M 11.289062 19.78125 L 15.925781 11.1875 L 2.460938 10.464844 M 11.828125 20.324219 L 16.207031 24.996094 L 21.039062 20.292969 L 22.539062 11.53125 L 16.652344 11.230469 " fill-opacity="1" fill-rule="nonzero"/></g></svg>